<svg xmlns="http://www.w3.org/2000/svg" width="643.55" height="556.568" viewBox="0 0 643.55 556.568"><defs><style>.a{opacity:0.54;}.b{fill:#ececec;}.c{opacity:0.48;}.d{fill:#d8d9d9;}.e{fill:#e3f4fc;}.f{opacity:0.28;}</style></defs><g class="a" transform="matrix(0.996, 0.087, -0.087, 0.996, -19.204, -96.048)"><g transform="translate(157.525 129.485)"><path class="b" d="M344.488,547.7c-120.908,0-219.271-98.365-219.271-219.273s98.364-219.27,219.271-219.27,219.27,98.364,219.27,219.27S465.394,547.7,344.488,547.7Zm0-396.795c-97.886,0-177.523,79.637-177.523,177.522S246.6,505.946,344.488,505.946s177.52-79.635,177.52-177.523S442.373,150.9,344.488,150.9Z" transform="translate(-125.217 -109.153)"/></g><g transform="translate(114.442 86.402)"><path class="b" d="M356.966,603.255C212.3,603.255,94.612,485.564,94.612,340.9S212.3,78.548,356.966,78.548v4.641C214.863,83.189,99.253,198.8,99.253,340.9S214.863,598.614,356.966,598.614a258,258,0,0,0,123.882-31.673l2.234,4.068A262.641,262.641,0,0,1,356.966,603.255Z" transform="translate(-94.612 -78.548)"/></g><g transform="translate(458.446 99.843)"><path class="b" d="M489.39,459.505l-4.1-2.169A257.9,257.9,0,0,0,338.984,92.5l1.468-4.4A262.542,262.542,0,0,1,489.39,459.505Z" transform="translate(-338.984 -88.096)"/></g><g transform="translate(140.53 86.402)"><path class="b" d="M136.951,126.164a23.808,23.808,0,1,1,23.807-23.807A23.834,23.834,0,0,1,136.951,126.164Zm0-42.974a19.167,19.167,0,1,0,19.167,19.167A19.189,19.189,0,0,0,136.951,83.189Z" transform="translate(-113.144 -78.548)"/></g><g transform="translate(150.276 96.149)"><circle class="b" cx="14.061" cy="14.061" r="14.061" transform="translate(0)"/></g><g class="c" transform="translate(518.355 542.004)"><path class="b" d="M470.111,407.775a15.221,15.221,0,1,1,15.222-15.222A15.238,15.238,0,0,1,470.111,407.775Zm0-28.122a12.9,12.9,0,1,0,12.9,12.9A12.916,12.916,0,0,0,470.111,379.653Z" transform="translate(-454.889 -377.333)"/></g><g class="c" transform="translate(524.374 548.022)"><path class="b" d="M477.569,390.81a9.2,9.2,0,1,1-9.2-9.2A9.2,9.2,0,0,1,477.569,390.81Z" transform="translate(-459.165 -381.608)"/></g><g transform="translate(479.282 153.335)"><path class="d" d="M369.007,156.538a15.222,15.222,0,1,1,15.222-15.222A15.238,15.238,0,0,1,369.007,156.538Zm0-28.122a12.9,12.9,0,1,0,12.9,12.9A12.915,12.915,0,0,0,369.007,128.416Z" transform="translate(-353.785 -126.095)"/></g><g transform="translate(487.997 162.05)"><path class="d" d="M372.989,138.792a6.506,6.506,0,1,1-6.506-6.506A6.506,6.506,0,0,1,372.989,138.792Z" transform="translate(-359.976 -132.286)"/></g><g transform="translate(654.261 462.245)"><path class="b" d="M479.246,357.121a1.16,1.16,0,0,1-.821-1.981l9.263-9.263a1.161,1.161,0,1,1,1.641,1.641l-9.263,9.263A1.156,1.156,0,0,1,479.246,357.121Z" transform="translate(-478.086 -345.537)"/></g><g transform="translate(635.936 480.571)"><path class="b" d="M466.228,370.14a1.161,1.161,0,0,1-.821-1.982l9.263-9.263a1.161,1.161,0,1,1,1.641,1.641l-9.263,9.263A1.158,1.158,0,0,1,466.228,370.14Z" transform="translate(-465.068 -358.556)"/></g><g transform="translate(654.261 480.571)"><path class="b" d="M488.509,370.14a1.162,1.162,0,0,1-.821-.341l-9.263-9.263a1.161,1.161,0,1,1,1.641-1.641l9.263,9.263a1.161,1.161,0,0,1-.821,1.982Z" transform="translate(-478.086 -358.556)"/></g><g transform="translate(635.936 462.245)"><path class="b" d="M475.491,357.121a1.156,1.156,0,0,1-.821-.339l-9.263-9.263a1.161,1.161,0,1,1,1.641-1.641l9.263,9.263a1.16,1.16,0,0,1-.821,1.981Z" transform="translate(-465.068 -345.537)"/></g><g transform="translate(652.045 157.901)"><path class="b" d="M478.117,150.649a1.6,1.6,0,0,1-1.6-1.6v-18.1a1.6,1.6,0,0,1,3.208,0v18.1A1.6,1.6,0,0,1,478.117,150.649Z" transform="translate(-476.512 -129.339)"/></g><g transform="translate(652.045 190.714)"><path class="b" d="M478.117,173.959a1.6,1.6,0,0,1-1.6-1.6v-18.1a1.6,1.6,0,0,1,3.208,0v18.1A1.6,1.6,0,0,1,478.117,173.959Z" transform="translate(-476.512 -152.648)"/></g><g transform="translate(659.967 182.792)"><path class="b" d="M501.845,150.229h-18.1a1.6,1.6,0,1,1,0-3.208h18.1a1.6,1.6,0,1,1,0,3.208Z" transform="translate(-482.139 -147.021)"/></g><g transform="translate(626.023 182.792)"><path class="b" d="M477.734,150.229h-18.1a1.6,1.6,0,0,1,0-3.208h18.1a1.6,1.6,0,0,1,0,3.208Z" transform="translate(-458.026 -147.021)"/></g><g transform="translate(658.31 163.729)"><path class="b" d="M482.565,149.487a1.6,1.6,0,0,1-1.135-2.738l12.8-12.8a1.6,1.6,0,0,1,2.268,2.269l-12.8,12.8A1.6,1.6,0,0,1,482.565,149.487Z" transform="translate(-480.962 -133.479)"/></g><g transform="translate(632.982 189.057)"><path class="b" d="M464.573,167.479a1.6,1.6,0,0,1-1.135-2.738l12.8-12.8a1.6,1.6,0,0,1,2.268,2.268l-12.8,12.8A1.6,1.6,0,0,1,464.573,167.479Z" transform="translate(-462.97 -151.471)"/></g><g transform="translate(658.31 189.057)"><path class="b" d="M495.367,167.479a1.6,1.6,0,0,1-1.135-.47l-12.8-12.8a1.6,1.6,0,0,1,2.268-2.268l12.8,12.8a1.6,1.6,0,0,1-1.133,2.738Z" transform="translate(-480.962 -151.471)"/></g><g transform="translate(632.982 163.729)"><path class="b" d="M477.374,149.487a1.6,1.6,0,0,1-1.133-.47l-12.8-12.8a1.6,1.6,0,0,1,2.268-2.269l12.8,12.8a1.6,1.6,0,0,1-1.135,2.738Z" transform="translate(-462.97 -133.479)"/></g><g transform="translate(141.183 562.914)"><path class="b" d="M115.275,439.209a1.667,1.667,0,0,1-1.667-1.667V418.718a1.667,1.667,0,1,1,3.335,0v18.824A1.668,1.668,0,0,1,115.275,439.209Z" transform="translate(-113.608 -417.05)"/></g><g transform="translate(131.771 572.326)"><path class="b" d="M127.413,427.071H108.589a1.667,1.667,0,0,1,0-3.335h18.824a1.667,1.667,0,1,1,0,3.335Z" transform="translate(-106.922 -423.736)"/></g><g transform="translate(62.142 283.242)"><path class="b" d="M60.324,256.442a2.864,2.864,0,0,1-2.865-2.865V221.243a2.865,2.865,0,1,1,5.729,0v32.335A2.864,2.864,0,0,1,60.324,256.442Z" transform="translate(-57.459 -218.378)"/></g><g transform="translate(45.974 299.41)"><path class="b" d="M81.174,235.592H48.839a2.865,2.865,0,1,1,0-5.729H81.174a2.865,2.865,0,1,1,0,5.729Z" transform="translate(-45.974 -229.863)"/></g><g transform="translate(85.402 386.749)"><path class="e" d="M75.913,317.551a1.93,1.93,0,0,1-1.93-1.93V293.837a1.93,1.93,0,1,1,3.86,0v21.784A1.929,1.929,0,0,1,75.913,317.551Z" transform="translate(-73.983 -291.907)"/></g><g transform="translate(74.51 397.642)"><path class="e" d="M89.961,303.5H68.176a1.93,1.93,0,1,1,0-3.86H89.961a1.93,1.93,0,1,1,0,3.86Z" transform="translate(-66.245 -299.645)"/></g><g class="f" transform="translate(521.105 68.674)"><circle class="b" cx="52.596" cy="52.596" r="52.596" transform="matrix(0.226, -0.974, 0.974, 0.226, 0, 102.467)"/></g><g class="f" transform="translate(531.636 131.801)"><path class="b" d="M390.976,110.8v52.6l57.472-.231Z" transform="translate(-390.976 -110.798)"/></g></g></svg>